<?xml version="1.0" encoding="UTF-8"?>
<svg id="Layer_1" data-name="Layer 1" xmlns="http://www.w3.org/2000/svg" viewBox="0 0 612 612">
  <defs>
    <style>
      .cls-1 {
        fill: #000;
        stroke-width: 0px;
      }
    </style>
  </defs>
  <circle class="cls-1" cx="308.43" cy="267.34" r="70.51"/>
  <g>
    <path class="cls-1" d="M163.85,297.77H38.95c-16.8,0-30.42-13.62-30.42-30.42s13.62-30.42,30.42-30.42h124.9c16.8,0,30.42,13.62,30.42,30.42s-13.62,30.42-30.42,30.42Z"/>
    <path class="cls-1" d="M573.05,297.77h-124.9c-16.8,0-30.42-13.62-30.42-30.42s13.62-30.42,30.42-30.42h124.9c16.8,0,30.42,13.62,30.42,30.42s-13.62,30.42-30.42,30.42Z"/>
  </g>
  <g>
    <g>
      <line class="cls-1" x1="78.31" y1="120.43" x2="186.48" y2="182.88"/>
      <path class="cls-1" d="M186.45,213.31c-5.16,0-10.39-1.31-15.18-4.08l-108.17-62.45c-14.55-8.4-19.54-27.01-11.14-41.56,8.4-14.55,27.01-19.54,41.56-11.14l108.17,62.45c14.55,8.4,19.54,27.01,11.14,41.56-5.63,9.76-15.86,15.22-26.38,15.22Z"/>
    </g>
    <g>
      <line class="cls-1" x1="425.52" y1="351.8" x2="533.69" y2="414.25"/>
      <path class="cls-1" d="M533.66,444.68c-5.16,0-10.39-1.31-15.18-4.08l-108.17-62.45c-14.55-8.4-19.54-27.01-11.14-41.56,8.4-14.55,27.01-19.54,41.56-11.14l108.17,62.45c14.55,8.4,19.54,27.01,11.14,41.56-5.64,9.76-15.86,15.22-26.38,15.22Z"/>
    </g>
  </g>
  <path class="cls-1" d="M249.64,406.62l-148.73-.45c-16.8-.05-30.38-13.71-30.33-30.52.05-16.77,13.66-30.33,30.42-30.33h.09l116.6.35,65.67-95.56c9.52-13.85,28.46-17.36,42.31-7.84,13.85,9.52,17.36,28.46,7.84,42.31l-83.87,122.04Z"/>
  <path class="cls-1" d="M308.15,522c-64.43,0-116.85-52.42-116.85-116.86,0-16.8,13.62-30.42,30.42-30.42s30.42,13.62,30.42,30.42c0,30.88,25.12,56.01,56.01,56.01,16.8,0,30.42,13.62,30.42,30.42s-13.62,30.42-30.42,30.42Z"/>
</svg>